<svg width="20" height="20" viewBox="0 0 20 20" fill="none" xmlns="http://www.w3.org/2000/svg">
<rect width="20.0007" height="20.0001" rx="1.88235" fill="#F5F7FA"/>
<path d="M13.5303 15.2941C14.5049 15.2941 15.295 14.504 15.295 13.5293C15.295 12.5547 14.5049 11.7646 13.5303 11.7646C12.5557 11.7646 11.7656 12.5547 11.7656 13.5293C11.7656 14.504 12.5557 15.2941 13.5303 15.2941Z" stroke="#89A8D7" stroke-width="1.17647" stroke-linecap="round" stroke-linejoin="round"/>
<path d="M6.47076 8.23546C7.44537 8.23546 8.23546 7.44537 8.23546 6.47076C8.23546 5.49614 7.44537 4.70605 6.47076 4.70605C5.49614 4.70605 4.70605 5.49614 4.70605 6.47076C4.70605 7.44537 5.49614 8.23546 6.47076 8.23546Z" stroke="#89A8D7" stroke-width="1.17647" stroke-linecap="round" stroke-linejoin="round"/>
<path d="M6.47168 8.23535V15.2942" stroke="#89A8D7" stroke-width="1.17647" stroke-linecap="round" stroke-linejoin="round"/>
<path d="M13.5283 4.70605V11.7649" stroke="#89A8D7" stroke-width="1.17647" stroke-linecap="round" stroke-linejoin="round"/>
</svg>
